<?xml version="1.0" encoding="UTF-8"?>
<!DOCTYPE svg PUBLIC "-//W3C//DTD SVG 1.1//EN"
    "http://www.w3.org/Graphics/SVG/1.1/DTD/svg11.dtd"><svg font-size="1" viewBox="0.0 0.0 800.0 185.80792248503846" stroke="rgb(0,0,0)" xmlns="http://www.w3.org/2000/svg" width="800.0000" stroke-opacity="1" height="185.8079" version="1.1" xmlns:xlink="http://www.w3.org/1999/xlink"><defs></defs><g stroke-linejoin="miter" fill-opacity="0.0" fill="rgb(0,0,0)" stroke="rgb(0,0,0)" stroke-linecap="butt" stroke-miterlimit="10.0" stroke-opacity="1.0" stroke-width="0.7710936077754265"><path d="M 798.9741,176.6885 l -0.0000,-170.9889 h -797.9481 l -0.0000,170.9889 Z"/></g><defs><radialGradient id="gradient2" gradientTransform="matrix(0.5700,-0.0000,0.0000,-0.5700,798.9741,91.1941)" fy="0.0010" gradientUnits="userSpaceOnUse" cx="0.0000" r="0.9000" spreadMethod="pad" cy="-150.0000" fx="-0.1500"><stop offset="0.3333" stop-opacity="1.0000" stop-color="rgb(255,255,255)"/><stop offset="0.3333" stop-opacity="1.0000" stop-color="rgb(255,255,255)"/><stop offset="1.0000" stop-opacity="1.0000" stop-color="rgb(0,0,0)"/></radialGradient></defs><g stroke-linejoin="miter" fill-opacity="1" fill="url(#gradient2)" stroke="rgb(0,0,0)" stroke-linecap="butt" stroke-miterlimit="10.0" stroke-opacity="1.0" stroke-width="0.0"><path d="M 797.9481,176.6885 c -0.0000,0.5666 0.4593,1.0259 1.0259 1.0259c 0.5666,0.0000 1.0259,-0.4593 1.0259 -1.0259v -170.9889 c 0.0000,-0.5666 -0.4593,-1.0259 -1.0259 -1.0259c -0.5666,-0.0000 -1.0259,0.4593 -1.0259 1.0259Z"/></g><g stroke-linejoin="miter" fill-opacity="0.0" fill="rgb(0,0,0)" stroke="rgb(0,0,0)" stroke-linecap="butt" stroke-miterlimit="10.0" stroke-opacity="1.0" stroke-width="0.0"><path d="M 798.9741,176.6885 v -170.9889 "/></g><defs><radialGradient id="gradient6" gradientTransform="matrix(0.5700,-0.0000,0.0000,-0.5700,798.9741,91.1941)" fy="0.0010" gradientUnits="userSpaceOnUse" cx="0.0000" r="0.9000" spreadMethod="pad" cy="-150.0000" fx="-0.1500"><stop offset="0.3333" stop-opacity="1.0000" stop-color="rgb(255,255,255)"/><stop offset="0.3333" stop-opacity="1.0000" stop-color="rgb(255,255,255)"/><stop offset="1.0000" stop-opacity="1.0000" stop-color="rgb(0,0,0)"/></radialGradient></defs><g stroke-linejoin="miter" fill-opacity="1" fill="url(#gradient6)" stroke="rgb(0,0,0)" stroke-linecap="butt" stroke-miterlimit="10.0" stroke-opacity="1.0" stroke-width="0.0"><path d="M 759.8346,176.6885 c -0.0000,0.5666 0.4593,1.0259 1.0259 1.0259c 0.5666,0.0000 1.0259,-0.4593 1.0259 -1.0259v -170.9889 c 0.0000,-0.5666 -0.4593,-1.0259 -1.0259 -1.0259c -0.5666,-0.0000 -1.0259,0.4593 -1.0259 1.0259Z"/></g><g stroke-linejoin="miter" fill-opacity="0.0" fill="rgb(0,0,0)" stroke="rgb(0,0,0)" stroke-linecap="butt" stroke-miterlimit="10.0" stroke-opacity="1.0" stroke-width="0.0"><path d="M 760.8605,176.6885 v -170.9889 "/></g><defs><radialGradient id="gradient10" gradientTransform="matrix(0.5700,-0.0000,0.0000,-0.5700,798.9741,91.1941)" fy="0.0010" gradientUnits="userSpaceOnUse" cx="0.0000" r="0.9000" spreadMethod="pad" cy="-150.0000" fx="-0.1500"><stop offset="0.3333" stop-opacity="1.0000" stop-color="rgb(255,255,255)"/><stop offset="0.3333" stop-opacity="1.0000" stop-color="rgb(255,255,255)"/><stop offset="1.0000" stop-opacity="1.0000" stop-color="rgb(0,0,0)"/></radialGradient></defs><g stroke-linejoin="miter" fill-opacity="1" fill="url(#gradient10)" stroke="rgb(0,0,0)" stroke-linecap="butt" stroke-miterlimit="10.0" stroke-opacity="1.0" stroke-width="0.0"><path d="M 719.4547,176.6885 c -0.0000,0.5666 0.4593,1.0259 1.0259 1.0259c 0.5666,0.0000 1.0259,-0.4593 1.0259 -1.0259v -170.9889 c 0.0000,-0.5666 -0.4593,-1.0259 -1.0259 -1.0259c -0.5666,-0.0000 -1.0259,0.4593 -1.0259 1.0259Z"/></g><g stroke-linejoin="miter" fill-opacity="0.0" fill="rgb(0,0,0)" stroke="rgb(0,0,0)" stroke-linecap="butt" stroke-miterlimit="10.0" stroke-opacity="1.0" stroke-width="0.0"><path d="M 720.4806,176.6885 v -170.9889 "/></g><defs><radialGradient id="gradient14" gradientTransform="matrix(0.5700,-0.0000,0.0000,-0.5700,798.9741,91.1941)" fy="0.0010" gradientUnits="userSpaceOnUse" cx="0.0000" r="0.9000" spreadMethod="pad" cy="-150.0000" fx="-0.1500"><stop offset="0.3333" stop-opacity="1.0000" stop-color="rgb(255,255,255)"/><stop offset="0.3333" stop-opacity="1.0000" stop-color="rgb(255,255,255)"/><stop offset="1.0000" stop-opacity="1.0000" stop-color="rgb(0,0,0)"/></radialGradient></defs><g stroke-linejoin="miter" fill-opacity="1" fill="url(#gradient14)" stroke="rgb(0,0,0)" stroke-linecap="butt" stroke-miterlimit="10.0" stroke-opacity="1.0" stroke-width="0.0"><path d="M 676.6737,176.6885 c -0.0000,0.5666 0.4593,1.0259 1.0259 1.0259c 0.5666,0.0000 1.0259,-0.4593 1.0259 -1.0259v -170.9889 c 0.0000,-0.5666 -0.4593,-1.0259 -1.0259 -1.0259c -0.5666,-0.0000 -1.0259,0.4593 -1.0259 1.0259Z"/></g><g stroke-linejoin="miter" fill-opacity="0.0" fill="rgb(0,0,0)" stroke="rgb(0,0,0)" stroke-linecap="butt" stroke-miterlimit="10.0" stroke-opacity="1.0" stroke-width="0.0"><path d="M 677.6996,176.6885 v -170.9889 "/></g><defs><radialGradient id="gradient18" gradientTransform="matrix(0.5700,-0.0000,0.0000,-0.5700,798.9741,91.1941)" fy="0.0010" gradientUnits="userSpaceOnUse" cx="0.0000" r="0.9000" spreadMethod="pad" cy="-150.0000" fx="-0.1500"><stop offset="0.3333" stop-opacity="1.0000" stop-color="rgb(255,255,255)"/><stop offset="0.3333" stop-opacity="1.0000" stop-color="rgb(255,255,255)"/><stop offset="1.0000" stop-opacity="1.0000" stop-color="rgb(0,0,0)"/></radialGradient></defs><g stroke-linejoin="miter" fill-opacity="1" fill="url(#gradient18)" stroke="rgb(0,0,0)" stroke-linecap="butt" stroke-miterlimit="10.0" stroke-opacity="1.0" stroke-width="0.0"><path d="M 631.3488,176.6885 c -0.0000,0.5666 0.4593,1.0259 1.0259 1.0259c 0.5666,0.0000 1.0259,-0.4593 1.0259 -1.0259v -170.9889 c 0.0000,-0.5666 -0.4593,-1.0259 -1.0259 -1.0259c -0.5666,-0.0000 -1.0259,0.4593 -1.0259 1.0259Z"/></g><g stroke-linejoin="miter" fill-opacity="0.0" fill="rgb(0,0,0)" stroke="rgb(0,0,0)" stroke-linecap="butt" stroke-miterlimit="10.0" stroke-opacity="1.0" stroke-width="0.0"><path d="M 632.3747,176.6885 v -170.9889 "/></g><defs><radialGradient id="gradient22" gradientTransform="matrix(0.5700,-0.0000,0.0000,-0.5700,798.9741,91.1941)" fy="0.0010" gradientUnits="userSpaceOnUse" cx="0.0000" r="0.9000" spreadMethod="pad" cy="-150.0000" fx="-0.1500"><stop offset="0.3333" stop-opacity="1.0000" stop-color="rgb(255,255,255)"/><stop offset="0.3333" stop-opacity="1.0000" stop-color="rgb(255,255,255)"/><stop offset="1.0000" stop-opacity="1.0000" stop-color="rgb(0,0,0)"/></radialGradient></defs><g stroke-linejoin="miter" fill-opacity="1" fill="url(#gradient22)" stroke="rgb(0,0,0)" stroke-linecap="butt" stroke-miterlimit="10.0" stroke-opacity="1.0" stroke-width="0.0"><path d="M 583.3288,176.6885 c -0.0000,0.5666 0.4593,1.0259 1.0259 1.0259c 0.5666,0.0000 1.0259,-0.4593 1.0259 -1.0259v -170.9889 c 0.0000,-0.5666 -0.4593,-1.0259 -1.0259 -1.0259c -0.5666,-0.0000 -1.0259,0.4593 -1.0259 1.0259Z"/></g><g stroke-linejoin="miter" fill-opacity="0.0" fill="rgb(0,0,0)" stroke="rgb(0,0,0)" stroke-linecap="butt" stroke-miterlimit="10.0" stroke-opacity="1.0" stroke-width="0.0"><path d="M 584.3547,176.6885 v -170.9889 "/></g><defs><radialGradient id="gradient26" gradientTransform="matrix(0.5700,-0.0000,0.0000,-0.5700,798.9741,91.1941)" fy="0.0010" gradientUnits="userSpaceOnUse" cx="0.0000" r="0.9000" spreadMethod="pad" cy="-150.0000" fx="-0.1500"><stop offset="0.3333" stop-opacity="1.0000" stop-color="rgb(255,255,255)"/><stop offset="0.3333" stop-opacity="1.0000" stop-color="rgb(255,255,255)"/><stop offset="1.0000" stop-opacity="1.0000" stop-color="rgb(0,0,0)"/></radialGradient></defs><g stroke-linejoin="miter" fill-opacity="1" fill="url(#gradient26)" stroke="rgb(0,0,0)" stroke-linecap="butt" stroke-miterlimit="10.0" stroke-opacity="1.0" stroke-width="0.0"><path d="M 532.4533,176.6885 c -0.0000,0.5666 0.4593,1.0259 1.0259 1.0259c 0.5666,0.0000 1.0259,-0.4593 1.0259 -1.0259v -170.9889 c 0.0000,-0.5666 -0.4593,-1.0259 -1.0259 -1.0259c -0.5666,-0.0000 -1.0259,0.4593 -1.0259 1.0259Z"/></g><g stroke-linejoin="miter" fill-opacity="0.0" fill="rgb(0,0,0)" stroke="rgb(0,0,0)" stroke-linecap="butt" stroke-miterlimit="10.0" stroke-opacity="1.0" stroke-width="0.0"><path d="M 533.4792,176.6885 v -170.9889 "/></g><defs><radialGradient id="gradient30" gradientTransform="matrix(0.5700,-0.0000,0.0000,-0.5700,798.9741,91.1941)" fy="0.0010" gradientUnits="userSpaceOnUse" cx="0.0000" r="0.9000" spreadMethod="pad" cy="-150.0000" fx="-0.1500"><stop offset="0.3333" stop-opacity="1.0000" stop-color="rgb(255,255,255)"/><stop offset="0.3333" stop-opacity="1.0000" stop-color="rgb(255,255,255)"/><stop offset="1.0000" stop-opacity="1.0000" stop-color="rgb(0,0,0)"/></radialGradient></defs><g stroke-linejoin="miter" fill-opacity="1" fill="url(#gradient30)" stroke="rgb(0,0,0)" stroke-linecap="butt" stroke-miterlimit="10.0" stroke-opacity="1.0" stroke-width="0.0"><path d="M 478.5526,176.6885 c -0.0000,0.5666 0.4593,1.0259 1.0259 1.0259c 0.5666,0.0000 1.0259,-0.4593 1.0259 -1.0259v -170.9889 c 0.0000,-0.5666 -0.4593,-1.0259 -1.0259 -1.0259c -0.5666,-0.0000 -1.0259,0.4593 -1.0259 1.0259Z"/></g><g stroke-linejoin="miter" fill-opacity="0.0" fill="rgb(0,0,0)" stroke="rgb(0,0,0)" stroke-linecap="butt" stroke-miterlimit="10.0" stroke-opacity="1.0" stroke-width="0.0"><path d="M 479.5785,176.6885 v -170.9889 "/></g><defs><radialGradient id="gradient34" gradientTransform="matrix(0.5700,-0.0000,0.0000,-0.5700,798.9741,91.1941)" fy="0.0010" gradientUnits="userSpaceOnUse" cx="0.0000" r="0.9000" spreadMethod="pad" cy="-150.0000" fx="-0.1500"><stop offset="0.3333" stop-opacity="1.0000" stop-color="rgb(255,255,255)"/><stop offset="0.3333" stop-opacity="1.0000" stop-color="rgb(255,255,255)"/><stop offset="1.0000" stop-opacity="1.0000" stop-color="rgb(0,0,0)"/></radialGradient></defs><g stroke-linejoin="miter" fill-opacity="1" fill="url(#gradient34)" stroke="rgb(0,0,0)" stroke-linecap="butt" stroke-miterlimit="10.0" stroke-opacity="1.0" stroke-width="0.0"><path d="M 421.4468,176.6885 c -0.0000,0.5666 0.4593,1.0259 1.0259 1.0259c 0.5666,0.0000 1.0259,-0.4593 1.0259 -1.0259v -170.9889 c 0.0000,-0.5666 -0.4593,-1.0259 -1.0259 -1.0259c -0.5666,-0.0000 -1.0259,0.4593 -1.0259 1.0259Z"/></g><g stroke-linejoin="miter" fill-opacity="0.0" fill="rgb(0,0,0)" stroke="rgb(0,0,0)" stroke-linecap="butt" stroke-miterlimit="10.0" stroke-opacity="1.0" stroke-width="0.0"><path d="M 422.4727,176.6885 v -170.9889 "/></g><defs><radialGradient id="gradient38" gradientTransform="matrix(0.5700,-0.0000,0.0000,-0.5700,798.9741,91.1941)" fy="0.0010" gradientUnits="userSpaceOnUse" cx="0.0000" r="0.9000" spreadMethod="pad" cy="-150.0000" fx="-0.1500"><stop offset="0.3333" stop-opacity="1.0000" stop-color="rgb(255,255,255)"/><stop offset="0.3333" stop-opacity="1.0000" stop-color="rgb(255,255,255)"/><stop offset="1.0000" stop-opacity="1.0000" stop-color="rgb(0,0,0)"/></radialGradient></defs><g stroke-linejoin="miter" fill-opacity="1" fill="url(#gradient38)" stroke="rgb(0,0,0)" stroke-linecap="butt" stroke-miterlimit="10.0" stroke-opacity="1.0" stroke-width="0.0"><path d="M 360.9453,176.6885 c -0.0000,0.5666 0.4593,1.0259 1.0259 1.0259c 0.5666,0.0000 1.0259,-0.4593 1.0259 -1.0259v -170.9889 c 0.0000,-0.5666 -0.4593,-1.0259 -1.0259 -1.0259c -0.5666,-0.0000 -1.0259,0.4593 -1.0259 1.0259Z"/></g><g stroke-linejoin="miter" fill-opacity="0.0" fill="rgb(0,0,0)" stroke="rgb(0,0,0)" stroke-linecap="butt" stroke-miterlimit="10.0" stroke-opacity="1.0" stroke-width="0.0"><path d="M 361.9713,176.6885 v -170.9889 "/></g><defs><radialGradient id="gradient42" gradientTransform="matrix(0.5700,-0.0000,0.0000,-0.5700,798.9741,91.1941)" fy="0.0010" gradientUnits="userSpaceOnUse" cx="0.0000" r="0.9000" spreadMethod="pad" cy="-150.0000" fx="-0.1500"><stop offset="0.3333" stop-opacity="1.0000" stop-color="rgb(255,255,255)"/><stop offset="0.3333" stop-opacity="1.0000" stop-color="rgb(255,255,255)"/><stop offset="1.0000" stop-opacity="1.0000" stop-color="rgb(0,0,0)"/></radialGradient></defs><g stroke-linejoin="miter" fill-opacity="1" fill="url(#gradient42)" stroke="rgb(0,0,0)" stroke-linecap="butt" stroke-miterlimit="10.0" stroke-opacity="1.0" stroke-width="0.0"><path d="M 296.8463,176.6885 c -0.0000,0.5666 0.4593,1.0259 1.0259 1.0259c 0.5666,0.0000 1.0259,-0.4593 1.0259 -1.0259v -170.9889 c 0.0000,-0.5666 -0.4593,-1.0259 -1.0259 -1.0259c -0.5666,-0.0000 -1.0259,0.4593 -1.0259 1.0259Z"/></g><g stroke-linejoin="miter" fill-opacity="0.0" fill="rgb(0,0,0)" stroke="rgb(0,0,0)" stroke-linecap="butt" stroke-miterlimit="10.0" stroke-opacity="1.0" stroke-width="0.0"><path d="M 297.8722,176.6885 v -170.9889 "/></g><defs><radialGradient id="gradient46" gradientTransform="matrix(0.5700,-0.0000,0.0000,-0.5700,798.9741,91.1941)" fy="0.0010" gradientUnits="userSpaceOnUse" cx="0.0000" r="0.9000" spreadMethod="pad" cy="-150.0000" fx="-0.1500"><stop offset="0.3333" stop-opacity="1.0000" stop-color="rgb(255,255,255)"/><stop offset="0.3333" stop-opacity="1.0000" stop-color="rgb(255,255,255)"/><stop offset="1.0000" stop-opacity="1.0000" stop-color="rgb(0,0,0)"/></radialGradient></defs><g stroke-linejoin="miter" fill-opacity="1" fill="url(#gradient46)" stroke="rgb(0,0,0)" stroke-linecap="butt" stroke-miterlimit="10.0" stroke-opacity="1.0" stroke-width="0.0"><path d="M 228.9356,176.6885 c -0.0000,0.5666 0.4593,1.0259 1.0259 1.0259c 0.5666,0.0000 1.0259,-0.4593 1.0259 -1.0259v -170.9889 c 0.0000,-0.5666 -0.4593,-1.0259 -1.0259 -1.0259c -0.5666,-0.0000 -1.0259,0.4593 -1.0259 1.0259Z"/></g><g stroke-linejoin="miter" fill-opacity="0.0" fill="rgb(0,0,0)" stroke="rgb(0,0,0)" stroke-linecap="butt" stroke-miterlimit="10.0" stroke-opacity="1.0" stroke-width="0.0"><path d="M 229.9616,176.6885 v -170.9889 "/></g><defs><radialGradient id="gradient50" gradientTransform="matrix(0.5700,-0.0000,0.0000,-0.5700,798.9741,91.1941)" fy="0.0010" gradientUnits="userSpaceOnUse" cx="0.0000" r="0.9000" spreadMethod="pad" cy="-150.0000" fx="-0.1500"><stop offset="0.3333" stop-opacity="1.0000" stop-color="rgb(255,255,255)"/><stop offset="0.3333" stop-opacity="1.0000" stop-color="rgb(255,255,255)"/><stop offset="1.0000" stop-opacity="1.0000" stop-color="rgb(0,0,0)"/></radialGradient></defs><g stroke-linejoin="miter" fill-opacity="1" fill="url(#gradient50)" stroke="rgb(0,0,0)" stroke-linecap="butt" stroke-miterlimit="10.0" stroke-opacity="1.0" stroke-width="0.0"><path d="M 156.9869,176.6885 c -0.0000,0.5666 0.4593,1.0259 1.0259 1.0259c 0.5666,0.0000 1.0259,-0.4593 1.0259 -1.0259v -170.9889 c 0.0000,-0.5666 -0.4593,-1.0259 -1.0259 -1.0259c -0.5666,-0.0000 -1.0259,0.4593 -1.0259 1.0259Z"/></g><g stroke-linejoin="miter" fill-opacity="0.0" fill="rgb(0,0,0)" stroke="rgb(0,0,0)" stroke-linecap="butt" stroke-miterlimit="10.0" stroke-opacity="1.0" stroke-width="0.0"><path d="M 158.0128,176.6885 v -170.9889 "/></g><defs><radialGradient id="gradient54" gradientTransform="matrix(0.5700,-0.0000,0.0000,-0.5700,798.9741,91.1941)" fy="0.0010" gradientUnits="userSpaceOnUse" cx="0.0000" r="0.9000" spreadMethod="pad" cy="-150.0000" fx="-0.1500"><stop offset="0.3333" stop-opacity="1.0000" stop-color="rgb(255,255,255)"/><stop offset="0.3333" stop-opacity="1.0000" stop-color="rgb(255,255,255)"/><stop offset="1.0000" stop-opacity="1.0000" stop-color="rgb(0,0,0)"/></radialGradient></defs><g stroke-linejoin="miter" fill-opacity="1" fill="url(#gradient54)" stroke="rgb(0,0,0)" stroke-linecap="butt" stroke-miterlimit="10.0" stroke-opacity="1.0" stroke-width="0.0"><path d="M 80.7598,176.6885 c -0.0000,0.5666 0.4593,1.0259 1.0259 1.0259c 0.5666,0.0000 1.0259,-0.4593 1.0259 -1.0259v -170.9889 c 0.0000,-0.5666 -0.4593,-1.0259 -1.0259 -1.0259c -0.5666,-0.0000 -1.0259,0.4593 -1.0259 1.0259Z"/></g><g stroke-linejoin="miter" fill-opacity="0.0" fill="rgb(0,0,0)" stroke="rgb(0,0,0)" stroke-linecap="butt" stroke-miterlimit="10.0" stroke-opacity="1.0" stroke-width="0.0"><path d="M 81.7857,176.6885 v -170.9889 "/></g><defs><radialGradient id="gradient58" gradientTransform="matrix(0.5700,-0.0000,0.0000,-0.5700,798.9741,91.1941)" fy="0.0010" gradientUnits="userSpaceOnUse" cx="0.0000" r="0.9000" spreadMethod="pad" cy="-150.0000" fx="-0.1500"><stop offset="0.3333" stop-opacity="1.0000" stop-color="rgb(255,255,255)"/><stop offset="0.3333" stop-opacity="1.0000" stop-color="rgb(255,255,255)"/><stop offset="1.0000" stop-opacity="1.0000" stop-color="rgb(0,0,0)"/></radialGradient></defs><g stroke-linejoin="miter" fill-opacity="1" fill="url(#gradient58)" stroke="rgb(0,0,0)" stroke-linecap="butt" stroke-miterlimit="10.0" stroke-opacity="1.0" stroke-width="0.0"><path d="M 0.0000,176.6885 c -0.0000,0.5666 0.4593,1.0259 1.0259 1.0259c 0.5666,0.0000 1.0259,-0.4593 1.0259 -1.0259v -170.9889 c 0.0000,-0.5666 -0.4593,-1.0259 -1.0259 -1.0259c -0.5666,-0.0000 -1.0259,0.4593 -1.0259 1.0259Z"/></g><g stroke-linejoin="miter" fill-opacity="0.0" fill="rgb(0,0,0)" stroke="rgb(0,0,0)" stroke-linecap="butt" stroke-miterlimit="10.0" stroke-opacity="1.0" stroke-width="0.0"><path d="M 1.0259,176.6885 v -170.9889 "/></g><g stroke-linejoin="miter" fill-opacity="0.0" fill="rgb(0,0,0)" stroke="rgb(0,0,0)" stroke-linecap="butt" stroke-miterlimit="10.0" stroke-opacity="1.0" stroke-width="2.3132808233262794"><path d="M 1.0259,176.6885 h 797.9481 "/></g><g stroke-linejoin="miter" fill-opacity="0.0" fill="rgb(0,0,0)" stroke="rgb(0,0,0)" stroke-linecap="butt" stroke-miterlimit="10.0" stroke-opacity="1.0" stroke-width="1.9277340194385661"><path d="M 1.0259,142.4907 h 797.9481 "/></g><g stroke-linejoin="miter" fill-opacity="0.0" fill="rgb(0,0,0)" stroke="rgb(0,0,0)" stroke-linecap="butt" stroke-miterlimit="10.0" stroke-opacity="1.0" stroke-width="1.542187215550853"><path d="M 1.0259,108.2930 h 797.9481 "/></g><g stroke-linejoin="miter" fill-opacity="0.0" fill="rgb(0,0,0)" stroke="rgb(0,0,0)" stroke-linecap="butt" stroke-miterlimit="10.0" stroke-opacity="1.0" stroke-width="1.1566404116631397"><path d="M 1.0259,74.0952 h 797.9481 "/></g><g stroke-linejoin="miter" fill-opacity="0.0" fill="rgb(0,0,0)" stroke="rgb(0,0,0)" stroke-linecap="butt" stroke-miterlimit="10.0" stroke-opacity="1.0" stroke-width="0.7710936077754265"><path d="M 1.0259,39.8974 h 797.9481 "/></g><g stroke-linejoin="miter" fill-opacity="0.0" fill="rgb(0,0,0)" stroke="rgb(0,0,0)" stroke-linecap="butt" stroke-miterlimit="10.0" stroke-opacity="1.0" stroke-width="0.5"><path d="M 1.0259,5.6996 h 797.9481 "/></g><g stroke-linejoin="miter" fill-opacity="1.0" font-size="6.839555428897121px" fill="rgb(0,0,0)" stroke="rgb(0,0,0)" stroke-linecap="butt" stroke-miterlimit="10.0" stroke-opacity="1.0" stroke-width="1.542187215550853"><text transform="matrix(1.0000,0.0000,0.0000,1.0000,779.9173,185.8079)" stroke="none" dominant-baseline="middle" text-anchor="middle">14</text></g><g stroke-linejoin="miter" fill-opacity="1.0" font-size="6.839555428897121px" fill="rgb(0,0,0)" stroke="rgb(0,0,0)" stroke-linecap="butt" stroke-miterlimit="10.0" stroke-opacity="1.0" stroke-width="1.542187215550853"><text transform="matrix(1.0000,0.0000,0.0000,1.0000,740.6706,185.8079)" stroke="none" dominant-baseline="middle" text-anchor="middle">13</text></g><g stroke-linejoin="miter" fill-opacity="1.0" font-size="6.839555428897121px" fill="rgb(0,0,0)" stroke="rgb(0,0,0)" stroke-linecap="butt" stroke-miterlimit="10.0" stroke-opacity="1.0" stroke-width="1.542187215550853"><text transform="matrix(1.0000,0.0000,0.0000,1.0000,699.0901,185.8079)" stroke="none" dominant-baseline="middle" text-anchor="middle">12</text></g><g stroke-linejoin="miter" fill-opacity="1.0" font-size="6.839555428897121px" fill="rgb(0,0,0)" stroke="rgb(0,0,0)" stroke-linecap="butt" stroke-miterlimit="10.0" stroke-opacity="1.0" stroke-width="1.542187215550853"><text transform="matrix(1.0000,0.0000,0.0000,1.0000,655.0372,185.8079)" stroke="none" dominant-baseline="middle" text-anchor="middle">11</text></g><g stroke-linejoin="miter" fill-opacity="1.0" font-size="6.839555428897121px" fill="rgb(0,0,0)" stroke="rgb(0,0,0)" stroke-linecap="butt" stroke-miterlimit="10.0" stroke-opacity="1.0" stroke-width="1.542187215550853"><text transform="matrix(1.0000,0.0000,0.0000,1.0000,608.3647,185.8079)" stroke="none" dominant-baseline="middle" text-anchor="middle">10</text></g><g stroke-linejoin="miter" fill-opacity="1.0" font-size="6.839555428897121px" fill="rgb(0,0,0)" stroke="rgb(0,0,0)" stroke-linecap="butt" stroke-miterlimit="10.0" stroke-opacity="1.0" stroke-width="1.542187215550853"><text transform="matrix(1.0000,0.0000,0.0000,1.0000,558.9170,185.8079)" stroke="none" dominant-baseline="middle" text-anchor="middle">9</text></g><g stroke-linejoin="miter" fill-opacity="1.0" font-size="6.839555428897121px" fill="rgb(0,0,0)" stroke="rgb(0,0,0)" stroke-linecap="butt" stroke-miterlimit="10.0" stroke-opacity="1.0" stroke-width="1.542187215550853"><text transform="matrix(1.0000,0.0000,0.0000,1.0000,506.5289,185.8079)" stroke="none" dominant-baseline="middle" text-anchor="middle">8</text></g><g stroke-linejoin="miter" fill-opacity="1.0" font-size="6.839555428897121px" fill="rgb(0,0,0)" stroke="rgb(0,0,0)" stroke-linecap="butt" stroke-miterlimit="10.0" stroke-opacity="1.0" stroke-width="1.542187215550853"><text transform="matrix(1.0000,0.0000,0.0000,1.0000,451.0256,185.8079)" stroke="none" dominant-baseline="middle" text-anchor="middle">7</text></g><g stroke-linejoin="miter" fill-opacity="1.0" font-size="6.839555428897121px" fill="rgb(0,0,0)" stroke="rgb(0,0,0)" stroke-linecap="butt" stroke-miterlimit="10.0" stroke-opacity="1.0" stroke-width="1.542187215550853"><text transform="matrix(1.0000,0.0000,0.0000,1.0000,392.2220,185.8079)" stroke="none" dominant-baseline="middle" text-anchor="middle">6</text></g><g stroke-linejoin="miter" fill-opacity="1.0" font-size="6.839555428897121px" fill="rgb(0,0,0)" stroke="rgb(0,0,0)" stroke-linecap="butt" stroke-miterlimit="10.0" stroke-opacity="1.0" stroke-width="1.542187215550853"><text transform="matrix(1.0000,0.0000,0.0000,1.0000,329.9217,185.8079)" stroke="none" dominant-baseline="middle" text-anchor="middle">5</text></g><g stroke-linejoin="miter" fill-opacity="1.0" font-size="6.839555428897121px" fill="rgb(0,0,0)" stroke="rgb(0,0,0)" stroke-linecap="butt" stroke-miterlimit="10.0" stroke-opacity="1.0" stroke-width="1.542187215550853"><text transform="matrix(1.0000,0.0000,0.0000,1.0000,263.9169,185.8079)" stroke="none" dominant-baseline="middle" text-anchor="middle">4</text></g><g stroke-linejoin="miter" fill-opacity="1.0" font-size="6.839555428897121px" fill="rgb(0,0,0)" stroke="rgb(0,0,0)" stroke-linecap="butt" stroke-miterlimit="10.0" stroke-opacity="1.0" stroke-width="1.542187215550853"><text transform="matrix(1.0000,0.0000,0.0000,1.0000,193.9872,185.8079)" stroke="none" dominant-baseline="middle" text-anchor="middle">3</text></g><g stroke-linejoin="miter" fill-opacity="1.0" font-size="6.839555428897121px" fill="rgb(0,0,0)" stroke="rgb(0,0,0)" stroke-linecap="butt" stroke-miterlimit="10.0" stroke-opacity="1.0" stroke-width="1.542187215550853"><text transform="matrix(1.0000,0.0000,0.0000,1.0000,119.8993,185.8079)" stroke="none" dominant-baseline="middle" text-anchor="middle">2</text></g><g stroke-linejoin="miter" fill-opacity="1.0" font-size="6.839555428897121px" fill="rgb(0,0,0)" stroke="rgb(0,0,0)" stroke-linecap="butt" stroke-miterlimit="10.0" stroke-opacity="1.0" stroke-width="1.542187215550853"><text transform="matrix(1.0000,0.0000,0.0000,1.0000,41.4058,185.8079)" stroke="none" dominant-baseline="middle" text-anchor="middle">1</text></g><g stroke-linejoin="miter" fill-opacity="1.0" fill="rgb(255,0,0)" stroke="rgb(0,0,0)" stroke-linecap="butt" stroke-miterlimit="10.0" stroke-opacity="1.0" stroke-width="0.0"><path d="M 87.4853,5.6996 c 0.0000,-3.1478 -2.5518,-5.6996 -5.6996 -5.6996c -3.1478,-0.0000 -5.6996,2.5518 -5.6996 5.6996c -0.0000,3.1478 2.5518,5.6996 5.6996 5.6996c 3.1478,0.0000 5.6996,-2.5518 5.6996 -5.6996Z"/></g><g stroke-linejoin="miter" fill-opacity="1.0" font-size="4.559703619264748px" fill="rgb(255,255,255)" stroke="rgb(0,0,0)" stroke-linecap="butt" stroke-miterlimit="10.0" stroke-opacity="1.0" stroke-width="1.542187215550853"><text transform="matrix(1.0000,0.0000,0.0000,1.0000,81.7857,5.6996)" stroke="none" dominant-baseline="middle" text-anchor="middle">Pinky</text></g><g stroke-linejoin="miter" fill-opacity="1.0" font-size="27.358221715588485px" fill="rgb(0,0,0)" stroke="rgb(0,0,0)" stroke-linecap="butt" stroke-miterlimit="10.0" stroke-opacity="1.0" stroke-width="1.542187215550853"><text transform="matrix(1.0000,0.0000,0.0000,1.0000,1.0259,39.8974)" stroke="none" dominant-baseline="middle" text-anchor="middle">O</text></g><g stroke-linejoin="miter" fill-opacity="1.0" font-size="27.358221715588485px" fill="rgb(0,0,0)" stroke="rgb(0,0,0)" stroke-linecap="butt" stroke-miterlimit="10.0" stroke-opacity="1.0" stroke-width="1.542187215550853"><text transform="matrix(1.0000,0.0000,0.0000,1.0000,1.0259,74.0952)" stroke="none" dominant-baseline="middle" text-anchor="middle">O</text></g><g stroke-linejoin="miter" fill-opacity="1.0" fill="rgb(255,0,0)" stroke="rgb(0,0,0)" stroke-linecap="butt" stroke-miterlimit="10.0" stroke-opacity="1.0" stroke-width="0.0"><path d="M 235.6612,108.2930 c 0.0000,-3.1478 -2.5518,-5.6996 -5.6996 -5.6996c -3.1478,-0.0000 -5.6996,2.5518 -5.6996 5.6996c -0.0000,3.1478 2.5518,5.6996 5.6996 5.6996c 3.1478,0.0000 5.6996,-2.5518 5.6996 -5.6996Z"/></g><g stroke-linejoin="miter" fill-opacity="1.0" font-size="4.559703619264748px" fill="rgb(255,255,255)" stroke="rgb(0,0,0)" stroke-linecap="butt" stroke-miterlimit="10.0" stroke-opacity="1.0" stroke-width="1.542187215550853"><text transform="matrix(1.0000,0.0000,0.0000,1.0000,229.9616,108.2930)" stroke="none" dominant-baseline="middle" text-anchor="middle">Ring</text></g><g stroke-linejoin="miter" fill-opacity="1.0" fill="rgb(255,0,0)" stroke="rgb(0,0,0)" stroke-linecap="butt" stroke-miterlimit="10.0" stroke-opacity="1.0" stroke-width="0.0"><path d="M 163.7124,142.4907 c 0.0000,-3.1478 -2.5518,-5.6996 -5.6996 -5.6996c -3.1478,-0.0000 -5.6996,2.5518 -5.6996 5.6996c -0.0000,3.1478 2.5518,5.6996 5.6996 5.6996c 3.1478,0.0000 5.6996,-2.5518 5.6996 -5.6996Z"/></g><g stroke-linejoin="miter" fill-opacity="1.0" font-size="4.559703619264748px" fill="rgb(255,255,255)" stroke="rgb(0,0,0)" stroke-linecap="butt" stroke-miterlimit="10.0" stroke-opacity="1.0" stroke-width="1.542187215550853"><text transform="matrix(1.0000,0.0000,0.0000,1.0000,158.0128,142.4907)" stroke="none" dominant-baseline="middle" text-anchor="middle">Middle</text></g><g stroke-linejoin="miter" fill-opacity="1.0" fill="rgb(255,0,0)" stroke="rgb(0,0,0)" stroke-linecap="butt" stroke-miterlimit="10.0" stroke-opacity="1.0" stroke-width="0.0"><path d="M 87.4853,176.6885 c 0.0000,-3.1478 -2.5518,-5.6996 -5.6996 -5.6996c -3.1478,-0.0000 -5.6996,2.5518 -5.6996 5.6996c -0.0000,3.1478 2.5518,5.6996 5.6996 5.6996c 3.1478,0.0000 5.6996,-2.5518 5.6996 -5.6996Z"/></g><g stroke-linejoin="miter" fill-opacity="1.0" font-size="4.559703619264748px" fill="rgb(255,255,255)" stroke="rgb(0,0,0)" stroke-linecap="butt" stroke-miterlimit="10.0" stroke-opacity="1.0" stroke-width="1.542187215550853"><text transform="matrix(1.0000,0.0000,0.0000,1.0000,81.7857,176.6885)" stroke="none" dominant-baseline="middle" text-anchor="middle">Index</text></g></svg>